<?xml version="1.0" standalone="no"?>
<!DOCTYPE svg PUBLIC "-//W3C//DTD SVG 20010904//EN"
 "http://www.w3.org/TR/2001/REC-SVG-20010904/DTD/svg10.dtd">
<svg version="1.0" xmlns="http://www.w3.org/2000/svg"
 width="512.000000pt" height="512.000000pt" viewBox="0 0 512.000000 512.000000"
 preserveAspectRatio="xMidYMid meet">

<g transform="translate(0.000000,512.000000) scale(0.100000,-0.100000)"
fill="#000000" stroke="none">
<path d="M2419 5001 l-118 -118 -68 -7 c-110 -11 -299 -55 -438 -101 -739
-243 -1317 -821 -1560 -1560 -85 -258 -119 -477 -119 -765 0 -461 96 -819 337
-1250 118 -212 378 -509 587 -671 360 -279 743 -442 1205 -511 120 -17 510
-17 630 0 294 44 541 121 780 241 738 373 1222 1058 1336 1891 17 123 17 477
0 600 -65 474 -243 889 -535 1250 -76 94 -240 259 -330 333 -58 47 -72 54 -88
46 -47 -25 -102 -88 -134 -152 -43 -85 -58 -84 -101 2 -40 81 -74 115 -160
160 -37 20 -68 43 -68 51 0 8 31 32 70 53 66 36 115 73 115 87 0 10 -127 75
-241 123 -195 83 -459 155 -633 173 l-69 7 -116 119 c-84 85 -124 118 -141
118 -17 0 -57 -34 -141 -119z m-149 -878 c0 -130 -17 -123 285 -123 201 0 255
3 271 14 16 12 20 29 23 105 l3 91 161 -2 160 -3 14 -40 c27 -77 83 -305 103
-420 79 -458 63 -957 -46 -1390 -33 -130 -83 -275 -102 -297 -14 -17 -55 -18
-588 -18 l-573 0 -15 28 c-48 93 -130 430 -161 662 -35 256 -30 657 11 933 24
167 83 416 123 520 l11 27 160 0 160 0 0 -87z m-1120 -303 c42 -84 82 -125
154 -159 65 -30 84 -52 63 -69 -7 -5 -35 -21 -64 -36 -68 -34 -120 -87 -148
-150 -25 -56 -48 -82 -64 -71 -6 3 -27 37 -47 76 -40 75 -80 113 -159 151 -75
35 -73 58 8 97 74 35 126 88 164 166 36 73 54 72 93 -5z m3010 -289 c38 -72
70 -103 141 -140 30 -15 54 -34 54 -42 0 -8 -24 -27 -54 -43 -69 -37 -123 -93
-145 -150 -28 -72 -49 -70 -89 9 -33 65 -76 108 -144 140 -68 32 -67 50 6 87
71 36 102 67 141 139 17 32 37 59 45 59 8 0 28 -27 45 -59z m-1269 -1788 c5
-16 43 -113 84 -218 l75 -190 73 -33 c40 -18 90 -46 110 -63 l36 -30 -29 -47
c-37 -62 -69 -141 -90 -226 l-16 -69 -115 -2 c-162 -3 -263 -37 -397 -132
l-63 -45 -52 40 c-122 95 -247 136 -412 137 l-111 0 -19 79 c-10 43 -37 116
-60 162 l-42 84 49 46 c27 25 73 56 102 70 l53 24 73 188 c41 103 80 202 87
220 l13 32 320 0 320 0 11 -27z"/>
<path d="M2454 3805 c-257 -56 -438 -317 -395 -572 37 -217 215 -393 429 -423
272 -38 526 150 573 423 43 257 -138 517 -400 573 -80 17 -127 17 -207 -1z
m250 -204 c117 -57 181 -161 180 -291 -1 -284 -332 -430 -547 -241 -46 41 -95
140 -103 207 -8 60 9 143 39 194 91 156 270 210 431 131z"/>
</g>
</svg>
